<?xml version="1.0" encoding="UTF-8"?>
<svg xmlns="http://www.w3.org/2000/svg" xmlns:xlink="http://www.w3.org/1999/xlink" width="120pt" height="120pt" viewBox="0 0 120 120" version="1.1">
<g id="surface1">
<path style=" stroke:none;fill-rule:nonzero;fill:rgb(0%,0%,0%);fill-opacity:1;" d="M 65 10.019531 C 90.230469 12.539062 110 33.933594 110 59.871094 C 110 67.203125 108.378906 74.148438 105.539062 80.433594 L 114.230469 85.460938 C 117.890625 77.695312 120 69.039062 120 59.875 C 120 28.355469 95.789062 2.554688 65 0 Z M 14.453125 80.433594 C 11.613281 74.148438 10 67.203125 10 59.875 C 10 33.933594 29.769531 12.546875 55 10.023438 L 55 0 C 24.210938 2.554688 0 28.355469 0 59.875 C 0 69.039062 2.105469 77.691406 5.765625 85.464844 Z M 100.519531 89.105469 C 91.433594 101.71875 76.675781 109.976562 60 109.976562 C 43.324219 109.976562 28.558594 101.71875 19.476562 89.101562 L 10.746094 94.148438 C 21.578125 109.765625 39.585938 120 60 120 C 80.410156 120 98.414062 109.765625 109.253906 94.160156 Z M 60 19.789062 C 37.90625 19.789062 20 37.734375 20 59.875 C 20 82.015625 37.90625 99.960938 60 99.960938 C 82.09375 99.960938 100 82.015625 100 59.875 C 100 37.734375 82.09375 19.789062 60 19.789062 Z M 50 74.90625 L 50 44.839844 L 80 60.601562 Z M 50 74.90625 "/>
</g>
</svg>
